# xmcd
#
# Track frame offsets: 
#        150
#        20504
#        38661
#        54636
#        73900
#        91308
#        107679
#        128695
#        144838
#        161346
#        182876
#        199183
#
# Disc length: 2835 seconds
#
# Revision: 0
# Processed by: cddbd v1.5.2PL0 Copyright (c) Steve Scherf et al.
# Submitted via: ExactAudioCopy v1.0b4
#
DISCID=a00b110c
DTITLE=Kim Simmonds - Jazzin' On The Blues
DYEAR=2015
DGENRE=Jazzy Blues
TTITLE0=Dancing On A Memory
TTITLE1=Walking The Guitar
TTITLE2=Theme For Deborah
TTITLE3=Surrender
TTITLE4=Jazzin' On The Blues
TTITLE5=The Maze
TTITLE6=She's A Woman
TTITLE7=Rollin' The Blues
TTITLE8=Nightliner
TTITLE9=True Blue
TTITLE10=Shop Around
TTITLE11=Fascination
EXTD=
EXTT0=
EXTT1=
EXTT2=
EXTT3=
EXTT4=
EXTT5=
EXTT6=
EXTT7=
EXTT8=
EXTT9=
EXTT10=
EXTT11=
PLAYORDER=
